<?xml version="1.0" encoding="utf-8"?>
<!-- Generator: Adobe Illustrator 17.0.0, SVG Export Plug-In . SVG Version: 6.00 Build 0)  -->
<!DOCTYPE svg PUBLIC "-//W3C//DTD SVG 1.1//EN" "http://www.w3.org/Graphics/SVG/1.1/DTD/svg11.dtd">
<svg version="1.1" id="Capa_1" xmlns="http://www.w3.org/2000/svg" xmlns:xlink="http://www.w3.org/1999/xlink" x="0px" y="0px"
	 width="200px" height="200px" viewBox="0 0 200 200" enable-background="new 0 0 200 200" xml:space="preserve">
<path fill="#FFFFFF" d="M112.249,193.532c0-23.284,0-46.559,0-70.052c7.151,0,14.266,0,21.449,0
	c1.086-8.4,2.146-16.595,3.223-24.928c-8.273,0-16.405,0-24.662,0c-0.038-0.517-0.095-0.924-0.095-1.331
	c-0.005-4.925-0.04-9.851,0.02-14.775c0.019-1.6,0.112-3.239,0.482-4.786c1.044-4.362,4.093-6.848,8.941-7.093
	c4.772-0.242,9.559-0.191,14.34-0.266c0.554-0.009,1.109-0.001,1.72-0.001c0.038-0.555,0.086-0.924,0.086-1.293
	c0.005-6.535-0.015-13.071,0.023-19.606c0.006-0.985-0.198-1.466-1.292-1.504c-6.763-0.23-13.531-0.819-20.285-0.689
	c-7.567,0.145-14.511,2.512-20.209,7.781c-4.687,4.334-7.457,9.763-8.563,15.973c-0.594,3.337-0.845,6.761-0.944,10.154
	c-0.152,5.252-0.04,10.512-0.04,15.769c0,0.507,0,1.014,0,1.632c-7.23,0-14.272,0-21.437,0c0,8.317,0,16.522,0,24.916
	c7.074,0,14.151,0,21.331,0c0,23.229,0,46.269,0,69.56c-13.306-2.143-25.425-7.124-36.268-14.871
	c-21.157-15.116-34.069-35.612-37.472-61.44C5.817,65.218,43.045,20.343,92.845,15.718c51.894-4.82,93.681,34.077,97.647,81.043
	C195.049,150.736,153.685,189.376,112.249,193.532z"/>
</svg>
