<?xml version="1.0" encoding="utf-8"?>
<!-- Generator: Adobe Illustrator 17.0.0, SVG Export Plug-In . SVG Version: 6.00 Build 0)  -->
<!DOCTYPE svg PUBLIC "-//W3C//DTD SVG 1.1//EN" "http://www.w3.org/Graphics/SVG/1.1/DTD/svg11.dtd">
<svg version="1.1" id="Capa_1" xmlns="http://www.w3.org/2000/svg" xmlns:xlink="http://www.w3.org/1999/xlink" x="0px" y="0px"
	 width="200px" height="200px" viewBox="0 0 200 200" enable-background="new 0 0 200 200" xml:space="preserve">
<g>
	<path fill="#FFFFFF" d="M24.856,191.924c0.459-1.677,0.891-3.259,1.323-4.841c3.204-11.709,6.407-23.418,9.62-35.125
		c0.108-0.392,0.086-0.701-0.12-1.065c-5.215-9.203-8.427-19.064-9.658-29.569C21.4,81.906,47.413,44.939,86.04,36.029
		c37.799-8.72,76.047,11.242,90.465,47.245c4.271,10.664,6.014,21.761,5.414,33.228c-1.76,33.659-25.035,61.993-56.559,71.051
		c-9.358,2.689-18.891,3.583-28.589,2.713c-10.614-0.953-20.615-3.957-30.02-8.968c-0.25-0.133-0.622-0.173-0.897-0.101
		c-13.446,3.513-26.889,7.043-40.331,10.571C25.342,191.815,25.158,191.854,24.856,191.924z M43.651,173.327
		c0.265-0.061,0.41-0.09,0.553-0.128c7.718-2.024,15.439-4.042,23.152-6.086c0.632-0.167,1.152-0.175,1.691,0.228
		c0.422,0.315,0.903,0.551,1.359,0.82c12.687,7.474,26.361,10.41,40.98,8.75c10.91-1.239,20.844-5.122,29.827-11.436
		c22.998-16.164,33.052-45.537,24.761-72.344C155.927,60.645,122.68,41.314,89.53,48.805c-36.882,8.334-59.634,46.517-47.563,83.811
		c1.877,5.799,4.613,11.178,7.96,16.256c0.218,0.33,0.256,0.62,0.151,1.001c-1.729,6.271-3.443,12.545-5.16,18.819
		C44.505,170.202,44.092,171.712,43.651,173.327z"/>
	<path fill="#FFFFFF" d="M78.255,76.197c0.794,0,1.589,0.001,2.383,0c0.957-0.002,1.77,0.366,2.296,1.142
		c0.537,0.792,1.024,1.638,1.395,2.519c1.886,4.479,3.624,9.023,5.631,13.446c0.921,2.031,0.904,3.75-0.247,5.608
		c-1.175,1.898-2.635,3.556-4.136,5.177c-1.727,1.866-1.853,2.551-0.533,4.729c4.803,7.923,10.96,14.514,19.08,19.101
		c2.529,1.428,5.209,2.597,7.857,3.804c1.5,0.684,2.529,0.402,3.579-0.878c2.111-2.573,4.195-5.169,6.258-7.781
		c0.922-1.167,1.798-1.574,3.212-1.107c1.288,0.425,2.552,0.951,3.777,1.536c4.181,1.996,8.317,4.089,12.52,6.037
		c1.651,0.766,2.301,1.883,2.178,3.655c-0.175,2.532-0.655,4.986-1.572,7.349c-0.488,1.258-1.326,2.295-2.307,3.198
		c-3.177,2.926-6.784,5.099-11.093,5.828c-4.584,0.775-9.066,0.259-13.47-1.263c-5.765-1.992-11.464-4.109-16.698-7.309
		c-6.839-4.182-12.769-9.434-18.103-15.381c-4.343-4.842-8.273-10.002-11.594-15.6c-2.107-3.552-3.696-7.342-4.331-11.452
		c-1.058-6.851,0.422-13.042,5.02-18.361c0.544-0.629,1.106-1.246,1.691-1.837c1.464-1.48,3.221-2.285,5.333-2.242
		c0.624,0.013,1.249,0.002,1.873,0.002C78.256,76.145,78.255,76.171,78.255,76.197z"/>
</g>
</svg>
